<?xml version="1.0" encoding="utf-8"?>
<!-- Generator: Adobe Illustrator 19.1.0, SVG Export Plug-In . SVG Version: 6.00 Build 0)  -->
<svg version="1.1" id="Layer_1" xmlns="http://www.w3.org/2000/svg" xmlns:xlink="http://www.w3.org/1999/xlink" x="0px" y="0px"
	 viewBox="0 0 90 90" enable-background="new 0 0 90 90" xml:space="preserve">
<path fill="#1f8ded" d="M78.75,0.0001298L11.2500095,0.000006c-6.2132258-0.0000114-11.25,5.0366535-11.25,11.2499628L0,78.7498703
	c-0.0000008,6.2133026,5.0367718,11.2499847,11.2499971,11.25l67.4999924,0.0001221
	c6.2132263,0.0000153,11.25-5.0366516,11.25-11.2499619L90,11.2501335C90,5.0368252,84.9632263,0.0001412,78.75,0.0001298z
	 M57.0000038,16.4999847c0-1.6567364,1.3432617-2.9999933,3-2.9999905s3,1.3432646,3,3l-0.0000076,40.0783844
	c0,1.6567345-1.3432617,2.9999924-3,2.9999886s-3-1.3432655-3-3L57.0000038,16.4999847z M42.0000038,14.9817295
	c0-1.6567364,1.3432617-2.9999933,3-2.9999905s3,1.3432655,3,3.000001l-0.0000076,43.4999352
	c0,1.6567345-1.3432617,2.9999924-3,2.9999886c-1.6567383,0-2.9999962-1.3432617-2.9999962-3L42.0000038,14.9817295z
	 M27.0000057,16.4999905c0-1.6567354,1.3432617-2.9999933,3-2.9999895c1.6567383,0.0000029,3.0000019,1.3432646,2.9999981,3.000001
	L33,56.5783195c0,1.6567345-1.3432636,2.9999924-3.0000019,2.9999924C28.3432617,59.5783081,27,58.2350464,27,56.5783081
	L27.0000057,16.4999905z M12.0000067,22.4999943c0-1.6567364,1.3432627-2.9999924,3-2.9999905
	c1.6567392,0.0000038,2.999999,1.3432655,2.999999,3.0000019l-0.0000038,26.9816265c0,1.6567383-1.3432617,2.9999924-3,2.9999924
	c-1.6567383-0.0000038-2.999999-1.3432655-2.999999-3.0000038L12.0000067,22.4999943z M76.9526291,68.2595444
	c-0.4628906,0.3969727-11.5766602,9.7221298-31.9526329,9.7220917c-20.3759747-0.0000305-31.4890099-9.3252335-31.9526329-9.7222061
	c-1.2575684-1.078125-1.4033194-2.972168-0.3251944-4.2304688c1.0759277-1.2553635,2.9648438-1.4040413,4.2231436-0.3310432
	c0.1765137,0.1472168,10.1000957,8.2836952,28.0546837,8.2837334c18.1801758,0.0000305,27.9506798-8.1950073,28.0473595-8.277771
	c1.2553711-1.0781212,3.1523438-0.9330978,4.2304688,0.3252029S78.2109299,67.181427,76.9526291,68.2595444z M77.9999924,49.4817429
	c0,1.6567345-1.3432617,2.9999924-3,2.9999886c-1.6567383,0-2.9999924-1.3432617-2.9999924-3V22.4999809
	c0-1.6567364,1.3432617-2.9999924,3-2.9999905c1.6567383,0.0000038,3,1.3432655,3,3.0000019L77.9999924,49.4817429z"/>
</svg>
